<?xml version="1.0" encoding="UTF-8"?>
<!DOCTYPE svg PUBLIC "-//W3C//DTD SVG 1.1//EN" "http://www.w3.org/Graphics/SVG/1.1/DTD/svg11.dtd">
<!-- Creator: CorelDRAW 2020 (64-Bit) -->
<svg xmlns="http://www.w3.org/2000/svg" xml:space="preserve" width="41.393mm" height="41.393mm" version="1.1" style="shape-rendering:geometricPrecision; text-rendering:geometricPrecision; image-rendering:optimizeQuality; fill-rule:evenodd; clip-rule:evenodd"
viewBox="0 0 3323.96 3323.96"
 xmlns:xlink="http://www.w3.org/1999/xlink"
 xmlns:xodm="http://www.corel.com/coreldraw/odm/2003">
 <defs>
  <style type="text/css">
   <![CDATA[
    .fil2 {fill:#1B96F4}
    .fil1 {fill:white;fill-rule:nonzero}
    .fil0 {fill:url(#id0)}
   ]]>
  </style>
  <linearGradient id="id0" gradientUnits="userSpaceOnUse" x1="1438.56" y1="15.3" x2="1885.39" y2="3308.65">
   <stop offset="0" style="stop-opacity:1; stop-color:#29A0FA"/>
   <stop offset="1" style="stop-opacity:1; stop-color:#0B7BEB"/>
  </linearGradient>
 </defs>
 <g id="Layer_x0020_1">
  <metadata id="CorelCorpID_0Corel-Layer"/>
  <g id="_2202328453664">
   <path class="fil0" d="M2554.14 260.01c774.28,492.73 1002.54,1519.84 509.81,2294.13 -492.73,774.28 -1519.84,1002.54 -2294.13,509.81 -774.28,-492.73 -1002.54,-1519.84 -509.81,-2294.13 492.73,-774.28 1519.84,-1002.54 2294.13,-509.81z"/>
   <g>
    <g>
     <path class="fil1" d="M1162.08 846.49c56.23,0 110.5,6.37 162.81,19.41 52.32,13.05 101.36,31.29 146.48,54.77 45.45,23.47 86.65,51.87 124.24,84.9 37.28,33.32 69.32,69.83 95.8,110.11 26.48,39.98 47.08,83.44 61.8,129.8 14.71,46.36 21.9,94.46 21.9,144.3 0,39.12 -5.23,76.2 -15.69,111.55 -10.79,35.35 -25.83,70.7 -45.45,105.77l-486.01 827.02c-37.37,51.27 -90.72,61.28 -128.09,7.16l-489.38 -834.18c-19.94,-35.07 -34.98,-70.42 -45.77,-105.77 -10.46,-35.35 -15.69,-72.43 -15.69,-111.55 0,-49.84 7.19,-97.94 21.9,-144.3 14.72,-46.36 35.32,-89.82 61.8,-129.8 26.48,-40.28 58.52,-76.79 95.8,-110.11 37.6,-33.03 78.79,-61.42 124.24,-84.9 45.12,-23.47 94.16,-41.72 146.48,-54.77 52.31,-13.04 106.59,-19.41 162.83,-19.41z"/>
     <circle class="fil2" cx="1162.07" cy="1412.45" r="288.27"/>
    </g>
    <g>
     <path class="fil1" d="M2161.88 846.49c56.24,0 110.51,6.37 162.82,19.41 52.31,13.05 101.35,31.29 146.47,54.77 45.45,23.47 86.65,51.87 124.25,84.9 37.27,33.32 69.31,69.83 95.79,110.11 26.48,39.98 47.08,83.44 61.8,129.8 14.71,46.36 21.91,94.46 21.91,144.3 0,39.12 -5.24,76.2 -15.7,111.55 -10.78,35.35 -25.83,70.7 -45.44,105.77l-486.02 827.02c-37.37,51.27 -90.72,61.28 -128.09,7.16l-489.37 -834.18c-19.95,-35.07 -34.99,-70.42 -45.77,-105.77 -10.46,-35.35 -15.7,-72.43 -15.7,-111.55 0,-49.84 7.2,-97.94 21.91,-144.3 14.72,-46.36 35.31,-89.82 61.79,-129.8 26.48,-40.28 58.53,-76.79 95.8,-110.11 37.6,-33.03 78.79,-61.42 124.25,-84.9 45.11,-23.47 94.16,-41.72 146.47,-54.77 52.31,-13.04 106.59,-19.41 162.83,-19.41z"/>
     <circle class="fil2" cx="2161.87" cy="1412.45" r="288.27"/>
    </g>
   </g>
  </g>
 </g>
</svg>
